HIERARCHY
ROOT Hip
{
	OFFSET	0.00  0.00  0.00 
	CHANNELS 6 Xposition Yposition Zposition Xrotation Zrotation Yrotation
	JOINT Abdomen
	{
		OFFSET	0.039181 5.637571 0.560720
		CHANNELS 3 Xrotation Zrotation Yrotation
		JOINT Chest
		{
			OFFSET	-0.136063 7.190207 -0.124363
			CHANNELS 3 Xrotation Zrotation Yrotation
			JOINT Neck
			{
				OFFSET	0.193764 10.560151 -1.259468
				CHANNELS 3 Xrotation Zrotation Yrotation
				JOINT Head
				{
					OFFSET	-0.096882 0.362727 0.622109
					CHANNELS 3 Xrotation Zrotation Yrotation
					JOINT LeftEye
					{
						OFFSET	1.356350 5.062673 4.221998
						CHANNELS 3 Zrotation Yrotation Xrotation
						End Site
						{
							OFFSET 0.000000 0.000000 0.871939
						}
					}
					JOINT RightEye
					{
						OFFSET	-1.356350 5.062673 4.221998
						CHANNELS 3 Zrotation Yrotation Xrotation
						End Site
						{
							OFFSET 0.000000 0.000000 0.871939
						}
					}
				}
			}
			JOINT RightCollar
			{
				OFFSET	-3.778404 4.940989 0.193764
				CHANNELS 3 Yrotation Zrotation Xrotation
				JOINT RightShoulder
				{
					OFFSET	-2.615818 1.356350 -0.484411
					CHANNELS 3 Zrotation Yrotation Xrotation
					JOINT RightForearm
					{
						OFFSET	-11.432094 0.484410 -1.937643
						CHANNELS 3 Yrotation Zrotation Xrotation
						JOINT RightHand
						{
							OFFSET	-10.657035 -0.096881 0.581293
							CHANNELS 3 Zrotation Yrotation Xrotation
							JOINT RightThumb1
							{
								OFFSET	-0.678175 -0.581297 0.968821
								CHANNELS 3 Zrotation Yrotation Xrotation
								JOINT RightThumb2
								{
									OFFSET	-0.968823 -0.484410 0.484411
									CHANNELS 3 Zrotation Yrotation Xrotation
									JOINT RightThumb3
									{
										OFFSET	-0.929680 -0.497680 0.055639
										CHANNELS 3 Zrotation Yrotation Xrotation
										End Site
										{
											OFFSET -1.097190 -0.513867 -0.001182
										}
									}
								}
							}
							JOINT RightIndex1
							{
								OFFSET	-3.003348 0.581291 1.259468
								CHANNELS 3 Zrotation Yrotation Xrotation
								JOINT RightIndex2
								{
									OFFSET	-1.468153 -0.266718 0.069755
									CHANNELS 3 Zrotation Yrotation Xrotation
									JOINT RightIndex3
									{
										OFFSET	-0.944212 -0.382684 -0.083028
										CHANNELS 3 Zrotation Yrotation Xrotation
										End Site
										{
											OFFSET -0.675657 -0.558718 0.000000
										}
									}
								}
							}
							JOINT RightMid1
							{
								OFFSET	-3.197113 0.581291 0.290646
								CHANNELS 3 Zrotation Yrotation Xrotation
								JOINT RightMid2
								{
									OFFSET	-1.550115 -0.387529 0.000000
									CHANNELS 3 Zrotation Yrotation Xrotation
									JOINT RightMid3
									{
										OFFSET	-0.731071 -0.803926 0.018214
										CHANNELS 3 Zrotation Yrotation Xrotation
										End Site
										{
											OFFSET -0.366992 -0.937043 0.083406
										}
									}
								}
							}
							JOINT RightRing1
							{
								OFFSET	-3.197113 0.387529 -0.678175
								CHANNELS 3 Zrotation Yrotation Xrotation
								JOINT RightRing2
								{
									OFFSET	-1.259466 -0.484410 0.096882
									CHANNELS 3 Zrotation Yrotation Xrotation
									JOINT RightRing3
									{
										OFFSET	-0.551552 -0.801218 0.111221
										CHANNELS 3 Zrotation Yrotation Xrotation
										End Site
										{
											OFFSET -0.245208 -0.810324 0.000000
										}
									}
								}
							}
							JOINT RightPinky1
							{
								OFFSET	-2.809584 -0.096881 -1.453232
								CHANNELS 3 Zrotation Yrotation Xrotation
								JOINT RightPinky2
								{
									OFFSET	-0.984323 -0.316034 0.039140
									CHANNELS 3 Zrotation Yrotation Xrotation
									JOINT RightPinky3
									{
										OFFSET	-0.468908 -0.555906 0.057742
										CHANNELS 3 Zrotation Yrotation Xrotation
										End Site
										{
											OFFSET -0.479664 -0.640198 0.044081
										}
									}
								}
							}
						}
					}
				}
			}
			JOINT LeftCollar
			{
				OFFSET	3.972168 4.940989 0.193764
				CHANNELS 3 Yrotation Zrotation Xrotation
				JOINT LeftShoulder
				{
					OFFSET	2.615818 1.356350 -0.484411
					CHANNELS 3 Zrotation Yrotation Xrotation
					JOINT LeftForearm
					{
						OFFSET	11.432094 0.484410 -1.937643
						CHANNELS 3 Yrotation Zrotation Xrotation
						JOINT LeftHand
						{
							OFFSET	10.657035 -0.096881 0.581293
							CHANNELS 3 Zrotation Yrotation Xrotation
							JOINT LeftThumb1
							{
								OFFSET	0.678175 -0.581297 0.968821
								CHANNELS 3 Zrotation Yrotation Xrotation
								JOINT LeftThumb2
								{
									OFFSET	0.968823 -0.484410 0.484411
									CHANNELS 3 Zrotation Yrotation Xrotation
									JOINT LeftThumb3
									{
										OFFSET	0.929680 -0.497680 0.055639
										CHANNELS 3 Zrotation Yrotation Xrotation
										End Site
										{
											OFFSET 1.097190 -0.513867 -0.001182
										}
									}
								}
							}
							JOINT LeftIndex1
							{
								OFFSET	3.003348 0.581291 1.259468
								CHANNELS 3 Zrotation Yrotation Xrotation
								JOINT LeftIndex2
								{
									OFFSET	1.468153 -0.266718 0.069755
									CHANNELS 3 Zrotation Yrotation Xrotation
									JOINT LeftIndex3
									{
										OFFSET	0.944212 -0.382684 -0.083028
										CHANNELS 3 Zrotation Yrotation Xrotation
										End Site
										{
											OFFSET 0.675657 -0.558718 0.000000
										}
									}
								}
							}
							JOINT LeftMid1
							{
								OFFSET	3.197113 0.581291 0.290646
								CHANNELS 3 Zrotation Yrotation Xrotation
								JOINT LeftMid2
								{
									OFFSET	1.550115 -0.387529 0.000000
									CHANNELS 3 Zrotation Yrotation Xrotation
									JOINT LeftMid3
									{
										OFFSET	0.731071 -0.803926 0.018214
										CHANNELS 3 Zrotation Yrotation Xrotation
										End Site
										{
											OFFSET 0.366992 -0.937043 0.083406
										}
									}
								}
							}
							JOINT LeftRing1
							{
								OFFSET	3.197113 0.387529 -0.678175
								CHANNELS 3 Zrotation Yrotation Xrotation
								JOINT LeftRing2
								{
									OFFSET	1.259466 -0.484410 0.096882
									CHANNELS 3 Zrotation Yrotation Xrotation
									JOINT LeftRing3
									{
										OFFSET	0.551552 -0.801218 0.111221
										CHANNELS 3 Zrotation Yrotation Xrotation
										End Site
										{
											OFFSET 0.245208 -0.810324 0.000000
										}
									}
								}
							}
							JOINT LeftPinky1
							{
								OFFSET	2.809584 -0.096881 -1.453232
								CHANNELS 3 Zrotation Yrotation Xrotation
								JOINT LeftPinky2
								{
									OFFSET	0.984323 -0.316034 0.039140
									CHANNELS 3 Zrotation Yrotation Xrotation
									JOINT LeftPinky3
									{
										OFFSET	0.468908 -0.555906 0.057742
										CHANNELS 3 Zrotation Yrotation Xrotation
										End Site
										{
											OFFSET 0.479664 -0.640198 0.044081
										}
									}
								}
							}
						}
					}
				}
			}
		}
	}
	JOINT RightThigh
	{
		OFFSET	-3.875286 0.717509 0.339475
		CHANNELS 3 Xrotation Zrotation Yrotation
		JOINT RightShin
		{
			OFFSET	-0.434323 -20.673391 0.003424
			CHANNELS 3 Xrotation Zrotation Yrotation
			JOINT RightFoot
			{
				OFFSET	-0.063555 -15.653578 -0.075717
				CHANNELS 3 Xrotation Yrotation Zrotation
				JOINT RightToe
				{
					OFFSET	-0.513669 -2.790361 5.061637
					CHANNELS 3 Xrotation Yrotation Zrotation
					End Site
					{
						OFFSET 0.000000 -0.280183 2.993164
					}
				}
			}
		}
	}
	JOINT LeftThigh
	{
		OFFSET	3.875286 0.717509 0.339475
		CHANNELS 3 Xrotation Zrotation Yrotation
		JOINT LeftShin
		{
			OFFSET	0.434323 -20.673391 0.003424
			CHANNELS 3 Xrotation Zrotation Yrotation
			JOINT LeftFoot
			{
				OFFSET	0.063555 -15.653578 -0.075717
				CHANNELS 3 Xrotation Yrotation Zrotation
				JOINT LeftToe
				{
					OFFSET	0.513669 -2.874842 4.946725
					CHANNELS 3 Xrotation Yrotation Zrotation
					End Site
					{
						OFFSET 0.000000 -0.195702 3.108076
					}
				}
			}
		}
	}
}
MOTION
Frames:     7
Frame Time: 0.033333
0.000000 40.041965 0.000000 1.591720 -6.325730 -32.185799 16.434900 10.125100 -1.410480 17.433201 3.354530 -3.509180 0.000000 0.000000 0.000000 -36.239899 2.127170 8.286470 0.000000 0.000000 0.000000 0.000000 0.000000 0.000000 3.778820 -21.989700 6.204790 84.926849 19.110998 -6.579589 39.193672 -0.244741 -0.636463 -10.211227 -26.158215 1.316877 -2.196803 8.088476 9.363434 3.147525 8.200828 -17.027071 -13.624039 11.527933 -17.398226 31.289900 19.533600 6.276580 -13.659037 9.822696 -5.878980 3.129372 3.416048 -6.315851 34.696049 23.527008 15.577812 8.244953 -1.502700 0.722675 -12.838020 -2.429856 5.230082 35.942455 25.760197 18.217253 -0.156757 -5.465929 4.370303 -17.719269 -3.972915 -0.926374 33.485588 25.796474 16.095177 6.763116 -5.654882 4.521092 4.441531 -3.901016 1.855662 10.745700 15.208000 -4.855760 -93.148613 -18.988173 4.794898 -43.943390 -0.135342 -0.457023 14.119613 23.128935 5.058949 1.301079 -8.886789 9.164861 -2.955782 -8.414250 -17.094837 10.068375 -12.319727 -17.903320 -10.289900 -19.533600 6.217660 -0.218670 -10.005516 -5.939189 -13.141240 -3.570157 -6.428788 -16.458578 -27.195522 -0.506856 -0.351563 0.000000 0.000000 -21.667566 1.148763 4.187686 -36.830936 -25.705244 18.217213 -0.736324 5.381598 4.224761 16.871576 3.912536 -1.093365 -34.376259 -25.747744 16.095236 -8.641175 4.276957 2.914167 -5.330077 3.798435 1.717381 -18.726629 -0.477182 -30.133814 10.370295 0.000646 -0.217854 15.003479 -10.955422 -0.404036 -0.000457 0.016384 -0.175016 -8.586192 12.426925 8.567177 52.028366 -0.382000 0.392649 38.406555 23.954748 -11.745811 0.000000 0.000000 0.000000 
-1.748810 40.556931 1.182834 1.413050 -5.623320 -34.256500 16.878901 8.247480 0.055960 16.228600 4.726680 -0.901385 0.000000 0.000000 0.000000 -34.455101 0.579785 5.578800 0.000000 0.000000 0.000000 0.000000 0.000000 0.000000 2.288310 -23.200701 5.367400 85.242371 19.507372 -7.546336 39.369457 -0.244465 -0.637843 -11.787837 -23.359503 2.440917 -2.196803 8.088476 9.363434 3.147525 8.200828 -17.027071 -13.624039 11.527933 -17.398226 31.289900 19.533600 6.276580 -13.659037 9.822696 -5.878980 3.129372 3.416048 -6.315851 34.696049 23.527008 15.577812 8.244953 -1.502700 0.722675 -12.838020 -2.429856 5.230082 35.942455 25.760197 18.217253 -0.156757 -5.465929 4.370303 -17.719269 -3.972915 -0.926374 33.485588 25.796474 16.095177 6.763116 -5.654882 4.521092 4.441531 -3.901016 1.855662 5.603020 13.439500 -1.664450 -91.187416 -12.661242 7.662674 -41.130291 -0.313051 -0.480399 11.157452 25.791862 6.469306 1.301079 -8.886789 9.164861 -2.955782 -8.414250 -17.094837 10.068375 -12.319727 -17.903320 -10.289900 -19.533600 6.217660 -0.218670 -10.005516 -5.939189 -13.141240 -3.570157 -6.428788 -16.458578 -27.195522 -0.506856 -0.351563 0.000000 0.000000 -21.667566 1.148763 4.187686 -36.830936 -25.705244 18.217213 -0.736324 5.381598 4.224761 16.871576 3.912536 -1.093365 -34.376259 -25.747744 16.095236 -8.641175 4.276957 2.914167 -5.330077 3.798435 1.717381 -16.609709 0.225228 -29.938877 11.600756 0.000621 -0.222877 10.962021 -9.722891 -1.592200 -0.000457 0.016384 -0.175016 -14.763853 12.655035 9.666435 56.771423 -0.753091 0.373655 37.312157 21.864595 -10.061905 0.000000 0.000000 0.000000 
-3.384074 41.063976 2.335548 0.881930 -4.745560 -36.473801 17.331499 6.210980 1.414040 15.038900 6.452880 1.738350 0.000000 0.000000 0.000000 -32.348099 -0.891042 2.673610 0.000000 0.000000 0.000000 0.000000 0.000000 0.000000 0.769874 -24.379999 4.581880 85.264069 19.681097 -8.249602 39.719288 -0.449428 -0.579088 -13.592953 -20.712385 3.705315 -2.196803 8.088476 9.363434 3.147525 8.200828 -17.027071 -13.624039 11.527933 -17.398226 31.289900 19.533600 6.276580 -13.659037 9.822696 -5.878980 3.129372 3.416048 -6.315851 34.696049 23.527008 15.577812 8.244953 -1.502700 0.722675 -12.838020 -2.429856 5.230082 35.942455 25.760197 18.217253 -0.156757 -5.465929 4.370303 -17.719269 -3.972915 -0.926374 33.485588 25.796474 16.095177 6.763116 -5.654882 4.521092 4.441531 -3.901016 1.855662 0.716674 11.268600 1.410400 -89.342743 -6.357276 10.905424 -38.492718 -0.194253 -0.585224 7.988170 28.341988 7.336667 1.301079 -8.886789 9.164861 -2.955782 -8.414250 -17.094837 10.068375 -12.319727 -17.903320 -10.289900 -19.533600 6.217660 -0.218670 -10.005516 -5.939189 -13.141240 -3.570157 -6.428788 -16.458578 -27.195522 -0.506856 -0.351563 0.000000 0.000000 -21.667566 1.148763 4.187686 -36.830936 -25.705244 18.217213 -0.736324 5.381598 4.224761 16.871576 3.912536 -1.093365 -34.376259 -25.747744 16.095236 -8.641175 4.276957 2.914167 -5.330077 3.798435 1.717381 -14.472649 0.585953 -29.143972 12.653951 0.039086 -0.574484 8.213099 -7.987017 -2.282620 -0.000457 0.016384 -0.175016 -21.076721 13.169146 11.173096 62.576546 -0.252424 0.305177 36.775192 19.566517 -8.736539 0.000000 0.000000 0.000000 
-4.992560 41.534683 3.511474 0.528659 -4.042820 -38.721199 17.454500 4.360720 2.785180 14.204000 8.012470 4.310560 0.000000 0.000000 0.000000 -30.788401 -2.265530 -0.058002 0.000000 0.000000 0.000000 0.000000 0.000000 0.000000 -0.775052 -25.184299 3.744050 84.604942 20.176161 -7.366188 39.895329 -0.426268 -0.586711 -14.364381 -19.092726 4.671101 -2.196803 8.088476 9.363434 3.147525 8.200828 -17.027071 -13.624039 11.527933 -17.398226 31.289900 19.533600 6.276580 -13.659037 9.822696 -5.878980 3.129372 3.416048 -6.315851 34.696049 23.527008 15.577812 8.244953 -1.502700 0.722675 -12.838020 -2.429856 5.230082 35.942455 25.760197 18.217253 -0.156757 -5.465929 4.370303 -17.719269 -3.972915 -0.926374 33.485588 25.796474 16.095177 6.763116 -5.654882 4.521092 4.441531 -3.901016 1.855662 -2.139910 10.084900 3.183940 -88.989372 -1.453795 13.768800 -37.087955 -0.200539 -0.397869 5.709149 31.175018 9.020045 1.301079 -8.886789 9.164861 -2.955782 -8.414250 -17.094837 10.068375 -12.319727 -17.903320 -10.289900 -19.533600 6.217660 -0.218670 -10.005516 -5.939189 -13.141240 -3.570157 -6.428788 -16.458578 -27.195522 -0.506856 -0.351563 0.000000 0.000000 -21.667566 1.148763 4.187686 -36.830936 -25.705244 18.217213 -0.736324 5.381598 4.224761 16.871576 3.912536 -1.093365 -34.376259 -25.747744 16.095236 -8.641175 4.276957 2.914167 -5.330077 3.798435 1.717381 -11.980499 0.945359 -29.044260 12.831213 0.000595 -0.227912 6.579978 -6.508674 -2.445181 -0.000457 0.016384 -0.175016 -26.615236 13.622346 12.356972 66.443169 -0.458587 0.181495 35.726810 17.848392 -7.861817 0.000000 0.000000 0.000000 
-6.638975 41.965538 4.738506 0.176080 -3.339840 -40.977299 17.246099 2.686250 3.829140 13.518600 8.720340 6.133040 0.000000 0.000000 0.000000 -29.934200 -3.200070 -2.028980 0.000000 0.000000 0.000000 0.000000 0.000000 0.000000 -2.334360 -25.605600 2.705870 83.595490 20.541672 -3.265193 39.720940 -0.256857 -0.636672 -13.845120 -19.246773 5.125717 -2.196803 8.088476 9.363434 3.147525 8.200828 -17.027071 -13.624039 11.527933 -17.398226 31.289900 19.533600 6.276580 -13.659037 9.822696 -5.878980 3.129372 3.416048 -6.315851 34.696049 23.527008 15.577812 8.244953 -1.502700 0.722675 -12.838020 -2.429856 5.230082 35.942455 25.760197 18.217253 -0.156757 -5.465929 4.370303 -17.719269 -3.972915 -0.926374 33.485588 25.796474 16.095177 6.763116 -5.654882 4.521092 4.441531 -3.901016 1.855662 -2.320740 10.426300 3.228510 -90.445396 2.067909 17.275074 -36.912140 -0.208646 -0.398022 5.708965 33.857220 12.333273 1.301079 -8.886789 9.164861 -2.955782 -8.414250 -17.094837 10.068375 -12.319727 -17.903320 -10.289900 -19.533600 6.217660 -0.218670 -10.005516 -5.939189 -13.141240 -3.570157 -6.428788 -16.458578 -27.195522 -0.506856 -0.351563 0.000000 0.000000 -21.667566 1.148763 4.187686 -36.830936 -25.705244 18.217213 -0.736324 5.381598 4.224761 16.871576 3.912536 -1.093365 -34.376259 -25.747744 16.095236 -8.641175 4.276957 2.914167 -5.330077 3.798435 1.717381 -8.989488 1.624318 -26.498180 11.423499 0.035419 -0.570239 5.435333 -6.104821 -2.447379 -0.000457 0.016384 -0.175016 -30.628160 13.600615 14.035759 66.091599 -0.458086 0.181803 33.736103 16.450962 -7.590603 0.000000 0.000000 0.000000 
-8.353024 42.286522 6.100098 0.000000 -2.636720 -42.890598 16.528099 1.348170 4.798560 12.979400 8.567890 6.892790 0.000000 0.000000 0.000000 -30.143999 -4.106630 -2.722440 0.000000 0.000000 0.000000 0.000000 0.000000 0.000000 -4.094200 -25.833300 1.758720 83.203163 21.425148 3.182558 39.896580 -0.276549 -0.632334 -13.063708 -21.041248 5.931198 -2.196803 8.088476 9.363434 3.147525 8.200828 -17.027071 -13.624039 11.527933 -17.398226 31.289900 19.533600 6.276580 -13.659037 9.822696 -5.878980 3.129372 3.416048 -6.315851 34.696049 23.527008 15.577812 8.244953 -1.502700 0.722675 -12.838020 -2.429856 5.230082 35.942455 25.760197 18.217253 -0.156757 -5.465929 4.370303 -17.719269 -3.972915 -0.926374 33.485588 25.796474 16.095177 6.763116 -5.654882 4.521092 4.441531 -3.901016 1.855662 -0.896408 11.565100 2.461640 -92.148491 5.360403 19.964689 -37.614559 -0.331600 -0.440410 6.686292 36.394157 17.052626 1.301079 -8.886789 9.164861 -2.955782 -8.414250 -17.094837 10.068375 -12.319727 -17.903320 -10.289900 -19.533600 6.217660 -0.218670 -10.005516 -5.939189 -13.141240 -3.570157 -6.428788 -16.458578 -27.195522 -0.506856 -0.351563 0.000000 0.000000 -21.667566 1.148763 4.187686 -36.830936 -25.705244 18.217213 -0.736324 5.381598 4.224761 16.871576 3.912536 -1.093365 -34.376259 -25.747744 16.095236 -8.641175 4.276957 2.914167 -5.330077 3.798435 1.717381 -5.490073 2.113303 -24.434475 9.316329 0.000670 -0.037843 4.166497 -5.899021 -1.564470 -0.000457 0.016384 -0.175016 -31.760878 13.311880 16.259520 58.884441 -0.439824 0.191503 28.892332 15.368066 -7.686405 0.000000 0.000000 0.000000 
-10.062470 42.488190 7.776004 0.175900 -2.109380 -44.661201 15.293200 0.339115 5.718740 12.596600 7.722090 7.001320 0.000000 0.000000 0.000000 -31.243601 -4.964060 -2.631290 0.000000 0.000000 0.000000 0.000000 0.000000 0.000000 -5.453540 -25.659000 0.810353 83.798103 23.028843 10.132372 39.724922 0.015372 -0.373680 -12.134599 -22.586252 6.472103 -2.196803 8.088476 9.363434 3.147525 8.200828 -17.027071 -13.624039 11.527933 -17.398226 31.289900 19.533600 6.276580 -13.659037 9.822696 -5.878980 3.129372 3.416048 -6.315851 34.696049 23.527008 15.577812 8.244953 -1.502700 0.722675 -12.838020 -2.429856 5.230082 35.942455 25.760197 18.217253 -0.156757 -5.465929 4.370303 -17.719269 -3.972915 -0.926374 33.485588 25.796474 16.095177 6.763116 -5.654882 4.521092 4.441531 -3.901016 1.855662 1.081410 12.859000 1.308430 -93.614586 8.905142 21.809406 -38.492622 -0.218592 -0.592175 7.903881 38.888100 20.886936 1.301079 -8.886789 9.164861 -2.955782 -8.414250 -17.094837 10.068375 -12.319727 -17.903320 -10.289900 -19.533600 6.217660 -0.218670 -10.005516 -5.939189 -13.141240 -3.570157 -6.428788 -16.458578 -27.195522 -0.506856 -0.351563 0.000000 0.000000 -21.667566 1.148763 4.187686 -36.830936 -25.705244 18.217213 -0.736324 5.381598 4.224761 16.871576 3.912536 -1.093365 -34.376259 -25.747744 16.095236 -8.641175 4.276957 2.914167 -5.330077 3.798435 1.717381 -2.011687 2.054424 -22.328403 7.205197 0.160201 -0.019970 3.423674 -5.525672 -0.106014 -0.000457 0.016384 -0.175016 -31.162186 12.540890 19.174898 46.756222 -0.237186 0.274783 22.317368 14.739947 -7.566596 0.000000 0.000000 0.000000 
